<svg width="13" height="18" viewBox="0 0 13 18" fill="none" xmlns="http://www.w3.org/2000/svg">
<path d="M9.9306 0.147034H1.07839C0.484009 0.147034 0 0.62328 0 1.20761V16.3804C0 16.9656 0.484009 17.4411 1.07839 17.4411H11.9215C12.5164 17.4411 13 16.9656 13 16.3804V3.4264L9.9306 0.147034ZM10.1851 1.73406L11.5305 3.17176H10.1851V1.73406ZM12.0943 16.3805C12.0943 16.4739 12.0165 16.5506 11.9211 16.5506H1.07839C0.983081 16.5506 0.905751 16.4739 0.905751 16.3805V1.20761C0.905751 1.11397 0.983081 1.03808 1.07839 1.03808H9.27892V3.61725C9.27892 3.86281 9.48236 4.06189 9.73225 4.06189H12.0943V16.3805ZM2.5035 4.88377H10.1948C10.3822 4.88377 10.5341 5.0332 10.5341 5.21743C10.5341 5.40165 10.3822 5.55108 10.1948 5.55108H2.5035C2.31618 5.55108 2.16418 5.40165 2.16418 5.21743C2.16418 5.03323 2.31618 4.88377 2.5035 4.88377ZM10.5341 7.45959C10.5341 7.64379 10.3822 7.79325 10.1948 7.79325H2.5035C2.31618 7.79325 2.16418 7.64382 2.16418 7.45959C2.16418 7.27536 2.31618 7.12594 2.5035 7.12594H10.1948C10.3822 7.12594 10.5341 7.2754 10.5341 7.45959ZM10.5341 9.62834C10.5341 9.81256 10.3822 9.96199 10.1948 9.96199H2.5035C2.31618 9.96199 2.16418 9.81256 2.16418 9.62834C2.16418 9.44411 2.31618 9.29468 2.5035 9.29468H10.1948C10.3822 9.29468 10.5341 9.44411 10.5341 9.62834ZM10.5341 11.834C10.5341 12.0182 10.3822 12.1677 10.1948 12.1677H2.5035C2.31618 12.1677 2.16418 12.0182 2.16418 11.834C2.16418 11.6498 2.31618 11.5004 2.5035 11.5004H10.1948C10.3822 11.5004 10.5341 11.6498 10.5341 11.834Z" fill="#5B6670"/>
</svg>
