<svg width="15" height="16" viewBox="0 0 15 16" fill="none" xmlns="http://www.w3.org/2000/svg">
<path d="M14.4786 4.04611H2.97276C1.90661 4.04611 1.03502 3.35713 1.03502 2.50749C1.03502 1.66094 1.90272 0.968867 2.97276 0.968867H14.4825C14.7704 0.968867 15 0.783491 15 0.55795C15 0.32932 14.7665 0.147034 14.4825 0.147034H2.97276C1.33463 0.147034 0 1.20677 0 2.50749V12.7866C0 14.0873 1.33463 15.147 2.97276 15.147H14.4825C14.7704 15.147 15 14.9617 15 14.7361V4.45702C14.9961 4.23148 14.7665 4.04611 14.4786 4.04611ZM13.9611 14.3252H2.97276C1.90661 14.3252 1.03502 13.6362 1.03502 12.7866V4.29945C1.55642 4.65476 2.23346 4.87103 2.97276 4.87103H13.9611V14.3252Z" fill="#5B6670"/>
<path d="M3.13616 2.13348C2.84822 2.13348 2.61865 2.31886 2.61865 2.5444C2.61865 2.76993 2.85212 2.95531 3.13616 2.95531H12.856C13.144 2.95531 13.3735 2.76993 13.3735 2.5444C13.3735 2.31886 13.1401 2.13348 12.856 2.13348H3.13616Z" fill="#5B6670"/>
<path d="M4.9569 12.527C5.01527 12.5425 5.07363 12.5518 5.132 12.5518C5.34601 12.5518 5.54445 12.4467 5.61838 12.2799L6.24873 10.8803H8.67674C8.6962 10.8803 8.71954 10.8803 8.739 10.8772L9.36935 12.2799C9.44328 12.4467 9.64561 12.5518 9.85573 12.5518C9.91409 12.5518 9.97246 12.5425 10.0308 12.527C10.2993 12.4498 10.4394 12.215 10.3421 12.0018L7.98413 6.75255C7.98024 6.74019 7.97246 6.72784 7.96468 6.71548C7.96079 6.7093 7.9569 6.70312 7.95301 6.69694C7.94912 6.69076 7.94523 6.68458 7.94133 6.6784C7.93744 6.67222 7.92966 6.66604 7.92577 6.65677C7.92188 6.65368 7.91799 6.64751 7.9141 6.64442C7.91021 6.63824 7.90242 6.63206 7.89464 6.62588C7.89075 6.62279 7.88686 6.61661 7.87908 6.61352C7.87519 6.60734 7.8674 6.60425 7.85962 6.59807C7.85184 6.59189 7.84795 6.5888 7.84017 6.58262C7.83628 6.57953 7.82849 6.57644 7.8246 6.57027C7.81682 6.56409 7.80904 6.561 7.80126 6.55482C7.79736 6.55173 7.78958 6.54864 7.78569 6.54555C7.77791 6.54246 7.77013 6.53628 7.76235 6.53319C7.75456 6.5301 7.74678 6.52701 7.739 6.52392C7.73122 6.52083 7.72344 6.51774 7.71565 6.51465C7.70009 6.50847 7.68453 6.50229 7.66896 6.4992H7.66507C7.64951 6.49611 7.63394 6.49302 7.61838 6.48994C7.61059 6.48994 7.6067 6.48685 7.59892 6.48685C7.58725 6.48376 7.57947 6.48376 7.56779 6.48067C7.56001 6.48067 7.55223 6.48067 7.54445 6.47758C7.53666 6.47758 7.52499 6.47449 7.51721 6.47449C7.50943 6.47449 7.50165 6.47449 7.49386 6.47449C7.48608 6.47449 7.4783 6.47449 7.46663 6.47449C7.45884 6.47449 7.44717 6.47449 7.43939 6.47758C7.43161 6.47758 7.42383 6.47758 7.41604 6.48067C7.40437 6.48067 7.39659 6.48376 7.38491 6.48685C7.37713 6.48685 7.37324 6.48994 7.36546 6.48994C7.3499 6.49302 7.33433 6.49611 7.32266 6.4992H7.31877C7.3032 6.50229 7.28764 6.50847 7.27207 6.51465C7.26429 6.51774 7.25651 6.52083 7.24873 6.52392C7.24095 6.52701 7.23316 6.5301 7.22538 6.53319C7.2176 6.53628 7.20982 6.54246 7.19814 6.54555C7.19425 6.54864 7.18647 6.55173 7.18258 6.55482C7.1748 6.561 7.16702 6.56409 7.15923 6.57027C7.15534 6.57335 7.14756 6.57644 7.14367 6.58262C7.13589 6.5888 7.132 6.59189 7.12421 6.59807C7.11643 6.60425 7.11254 6.60734 7.10476 6.61352C7.10087 6.61661 7.09698 6.62279 7.0892 6.62588C7.08141 6.63206 7.07752 6.63824 7.06974 6.64442C7.06585 6.64751 7.06196 6.65368 7.05807 6.65677C7.05418 6.66295 7.04639 6.66913 7.0425 6.67531C7.03861 6.68149 7.03472 6.68767 7.03083 6.69385C7.02694 6.70003 7.02305 6.70621 7.01916 6.71239C7.01137 6.72475 7.00359 6.7371 6.9997 6.74946L4.63395 11.9987C4.54834 12.215 4.68842 12.4498 4.9569 12.527ZM7.49775 8.11198L8.37324 10.0584H6.61838L7.49775 8.11198Z" fill="#5B6670"/>
</svg>
